HIERARCHY
ROOT root
{
	OFFSET	0	13.1	24.9
	CHANNELS 6  Xposition Yposition Zposition Xrotation Yrotation Zrotation
	JOINT spine_1
	{
		OFFSET	0	9.99999	0
		CHANNELS 3  Xrotation Yrotation Zrotation
		JOINT spine_2
		{
			OFFSET	0	112	-10
			CHANNELS 3  Xrotation Yrotation Zrotation
			JOINT spine_3
			{
				OFFSET	0	206.5	19.3
				CHANNELS 3  Xrotation Yrotation Zrotation
				JOINT spine_4
				{
					OFFSET	0	110.4	14.6
					CHANNELS 3  Xrotation Yrotation Zrotation
					JOINT neck_1
					{
						OFFSET	0	71.8	-50.3
						CHANNELS 3  Xrotation Yrotation Zrotation
						JOINT neck_2
						{
							OFFSET	0	86.2	-25.8
							CHANNELS 3  Xrotation Yrotation Zrotation
							JOINT head_ee
							{
								OFFSET	0	179.8	-8.7
								CHANNELS 3  Xrotation Yrotation Zrotation
								End Site
								{
									OFFSET	1	0	0
								}
							}
						}
					}
					JOINT left_clavicle
					{
						OFFSET	-43.2	22.4	-70.8
						CHANNELS 3  Xrotation Yrotation Zrotation
						JOINT left_shoulder
						{
							OFFSET	-93.9	-5.79999	48.7
							CHANNELS 3  Xrotation Yrotation Zrotation
							JOINT left_elbow
							{
								OFFSET	-291.4	-30.8	15.2
								CHANNELS 3  Xrotation Yrotation Zrotation
								JOINT left_lowarm_twist
								{
									OFFSET	-110.7	-3.89999	13.6
									CHANNELS 3  Xrotation Yrotation Zrotation
									JOINT left_hand
									{
										OFFSET	-110.7	-3.89999	13.6
										CHANNELS 3  Xrotation Yrotation Zrotation
										JOINT left_ee
										{
											OFFSET	-80.8	-5.10001	12.1
											CHANNELS 3  Xrotation Yrotation Zrotation
											End Site
											{
												OFFSET	1	0	0
											}
										}
									}
								}
							}
						}
					}
					JOINT right_clavicle
					{
						OFFSET	43.2	22.4	-70.8
						CHANNELS 3  Xrotation Yrotation Zrotation
						JOINT right_shoulder
						{
							OFFSET	93.9	-5.79999	48.7
							CHANNELS 3  Xrotation Yrotation Zrotation
							JOINT right_elbow
							{
								OFFSET	291.4	-30.8	15.2
								CHANNELS 3  Xrotation Yrotation Zrotation
								JOINT right_lowarm_twist
								{
									OFFSET	110.7	-3.89999	13.6
									CHANNELS 3  Xrotation Yrotation Zrotation
									JOINT right_hand
									{
										OFFSET	110.7	-3.89999	13.6
										CHANNELS 3  Xrotation Yrotation Zrotation
										JOINT right_ee
										{
											OFFSET	80.8	-5.10001	12.1
											CHANNELS 3  Xrotation Yrotation Zrotation
											End Site
											{
												OFFSET	1	0	0
											}
										}
									}
								}
							}
						}
					}
				}
			}
		}
	}
	JOINT left_hip
	{
		OFFSET	-82.8	-127.5	0.300001
		CHANNELS 3  Xrotation Yrotation Zrotation
		JOINT left_knee
		{
			OFFSET	-28.2	-396.7	2.2
			CHANNELS 3  Xrotation Yrotation Zrotation
			JOINT left_ankle
			{
				OFFSET	-11.7	-411.3	35.4
				CHANNELS 3  Xrotation Yrotation Zrotation
				JOINT left_toes
				{
					OFFSET	0	-60	-88.6
					CHANNELS 3  Xrotation Yrotation Zrotation
					JOINT left_foot_ee
					{
						OFFSET	-22.5	-16.5	-42.2
						CHANNELS 3  Xrotation Yrotation Zrotation
						End Site
						{
							OFFSET	1	0	0
						}
					}
				}
			}
		}
	}
	JOINT right_hip
	{
		OFFSET	82.8	-127.5	0.300001
		CHANNELS 3  Xrotation Yrotation Zrotation
		JOINT right_knee
		{
			OFFSET	28.2	-396.7	2.2
			CHANNELS 3  Xrotation Yrotation Zrotation
			JOINT right_ankle
			{
				OFFSET	11.7	-411.3	35.4
				CHANNELS 3  Xrotation Yrotation Zrotation
				JOINT right_toes
				{
					OFFSET	0	-60	-88.6
					CHANNELS 3  Xrotation Yrotation Zrotation
					JOINT right_foot_ee
					{
						OFFSET	22.5	-16.5	-42.2
						CHANNELS 3  Xrotation Yrotation Zrotation
						End Site
						{
							OFFSET	1	0	0
						}
					}
				}
			}
		}
	}
}
MOTION
Frames: 5
Frame Time: 0.02
2321.85 746.065 -1622.95 18.0832 56.2108 -28.8639 -2.51887 0.964073 6.63243 -2.49458 0.541045 6.68004 -2.40264 -1.15669 6.60169 -2.46338 -0.102002 6.70105 0.543571 17.8399 -8.2382 2.3749 38.3854 -7.7718 -0.0 0.0 -0.0 -1.40787 18.1708 -0.0112732 -25.9583 -14.7506 56.6307 0.91252 -24.3243 0.196667 6.46188 0.182443 -0.804823 1.00003 5.42423 8.85955 -0.0 0.0 -0.0 13.1449 24.5464 -26.1762 -6.24671 40.6823 -62.0742 1.54701 37.4618 -0.524592 -62.5516 5.60168 -5.1735 -5.18651 -16.2009 26.2789 0.0 0.0 0.0 -19.0085 34.7091 5.7199 -18.7992 0.307995 2.85553 -1.56678 4.18407 0.230758 -6.51487 0.0 0.0 -0.0 0.0 -0.0 -9.88251 29.4 4.72468 -4.68212 -0.164262 -0.699591 22.3065 -2.06603 3.02326 -7.32515 0.0 0.0 0.0 0.0 0.0 
2321.52 755.661 -1623.07 17.4468 56.0972 -28.3028 -2.6704 0.886644 6.68741 -2.64566 0.460296 6.73002 -2.56173 -1.26651 6.62625 -2.62288 -0.206607 6.74252 1.37603 17.4847 -8.92917 3.42016 38.2023 -8.91396 -0.0 0.0 -0.0 -1.31376 18.2107 0.137708 -26.1942 -14.6299 57.4538 0.862693 -23.1394 0.176613 6.23918 0.177673 -0.776774 1.00458 5.72883 9.00857 -0.0 0.0 -0.0 12.9125 24.3189 -25.6615 -5.70294 40.727 -62.1546 1.62533 38.8359 -0.572974 -62.9263 5.64877 -5.18292 -5.39677 -16.9366 27.2096 0.0 0.0 0.0 -19.3751 35.3693 5.90303 -15.252 0.321966 2.31155 -2.29137 4.37685 0.337936 -7.16575 0.0 0.0 -0.0 0.0 -0.0 -8.17488 28.4883 4.03367 -5.65588 -0.191204 -0.846601 22.1846 -3.46639 3.00325 -7.17103 0.0 0.0 0.0 0.0 0.0 
2318.88 754.001 -1618.7 16.0302 55.6281 -26.2592 -2.71854 0.859219 6.70761 -2.69364 0.431649 6.74844 -2.61261 -1.30504 6.63562 -2.67391 -0.243189 6.75782 1.58523 17.1704 -9.22166 3.66294 37.858 -9.34081 -0.0 0.0 -0.0 -0.99796 17.9795 0.584744 -25.5434 -14.7782 58.0194 0.830809 -22.3699 0.16428 6.10307 0.174703 -0.75964 0.989337 5.96091 8.99786 -0.0 0.0 -0.0 12.7853 24.1265 -25.3871 -5.11014 40.7998 -62.2333 1.68937 39.9214 -0.613608 -63.224 5.68621 -5.19018 -5.60414 -17.6862 28.0981 0.0 0.0 0.0 -18.6147 36.2475 5.94968 -12.4527 0.30921 1.88228 -2.78109 4.8006 0.410387 -7.60951 0.0 0.0 -0.0 0.0 -0.0 -7.29913 27.7992 3.72736 -6.43907 -0.211057 -0.965151 21.7357 -4.90718 2.94543 -7.1418 0.0 0.0 0.0 0.0 0.0 
2317.23 750.739 -1617.52 16.0184 55.1557 -25.9191 -2.74515 0.845569 6.73321 -2.72005 0.416408 6.77313 -2.64033 -1.32945 6.65495 -2.70197 -0.26427 6.78073 0.251691 16.8111 -9.02781 1.99052 37.2188 -8.5945 -0.0 0.0 -0.0 -0.80238 18.3964 0.938964 -26.7089 -14.7489 59.105 0.758533 -20.5939 0.137809 5.41985 0.159184 -0.673745 0.979647 6.35378 9.08633 -0.0 0.0 -0.0 12.6698 23.7966 -25.1537 -4.08384 40.9509 -62.0212 1.80824 41.8483 -0.691421 -63.4298 5.71212 -5.19509 -5.78213 -19.101 28.2389 0.0 0.0 0.0 -18.1053 36.8518 6.33395 -10.47 0.287496 1.57885 -2.22058 5.04167 0.327195 -7.78386 0.0 0.0 -0.0 0.0 -0.0 -6.25424 27.368 3.28624 -7.00169 -0.224318 -1.05047 19.9707 -6.83193 2.7271 -7.44771 0.0 0.0 0.0 0.0 0.0 
2317.62 749.333 -1615.32 15.5085 54.8861 -25.3425 -2.7006 0.747314 6.7386 -2.67541 0.318009 6.77229 -2.60814 -1.42126 6.62975 -2.66923 -0.358893 6.77026 -0.475192 16.5335 -8.95252 1.08088 36.7366 -8.23642 -0.0 0.0 -0.0 -0.474759 17.7035 1.34701 -26.5332 -15.1062 59.1809 0.722411 -19.6903 0.12537 4.96614 0.148312 -0.616807 0.969982 6.67832 9.14818 -0.0 0.0 -0.0 12.6003 23.5874 -25.0138 -3.47729 41.025 -61.7957 1.85517 42.5787 -0.722955 -63.575 5.7304 -5.19849 -5.88772 -20.1674 28.1166 0.0 0.0 0.0 -17.9786 37.7149 6.82044 -9.07691 0.265966 1.36618 -1.5603 5.17549 0.229536 -7.79349 0.0 0.0 -0.0 0.0 -0.0 -5.48155 27.0798 2.94221 -7.40329 -0.23327 -1.11145 19.0536 -8.13586 2.61304 -7.66188 0.0 0.0 0.0 0.0 0.0 
